<?xml version="1.0" encoding="UTF-8" standalone="no" ?>
<!DOCTYPE svg PUBLIC "-//W3C//DTD SVG 1.1//EN" "http://www.w3.org/Graphics/SVG/1.1/DTD/svg11.dtd">
<svg xmlns="http://www.w3.org/2000/svg" xmlns:xlink="http://www.w3.org/1999/xlink" version="1.1" width="1080" height="1080" viewBox="0 0 1080 1080" xml:space="preserve">
<desc>Created with Fabric.js 5.2.4</desc>
<defs>
</defs>
<g transform="matrix(1 0 0 1 540 540)" id="ae52b7db-9ece-42e5-bd6f-f5b53205b2d2"  >
<rect style="stroke: none; stroke-width: 1; stroke-dasharray: none; stroke-linecap: butt; stroke-dashoffset: 0; stroke-linejoin: miter; stroke-miterlimit: 4; fill: rgb(255,255,255); fill-rule: nonzero; opacity: 1; visibility: hidden;" vector-effect="non-scaling-stroke"  x="-540" y="-540" rx="0" ry="0" width="1080" height="1080" />
</g>
<g transform="matrix(1 0 0 1 540 540)" id="0a44966b-0004-460c-bfe2-7f00d74fac71"  >
</g>
<g transform="matrix(1 0 0 1 540 540)"  >
<g style="" vector-effect="non-scaling-stroke"   >
		<g transform="matrix(1 0 0 1 0 0)"  >
<path style="stroke: none; stroke-width: 1; stroke-dasharray: none; stroke-linecap: butt; stroke-dashoffset: 0; stroke-linejoin: miter; stroke-miterlimit: 4; fill: rgb(25,157,131); fill-rule: nonzero; opacity: 1;" vector-effect="non-scaling-stroke"  transform=" translate(-534.46, -526.28)" d="M 484.907968 833.438896 C 483.163231 846.331531 482.215649 865.724207 480.25192499999997 878.423436 C 476.33266199999997 903.743101 470.545866 927.4203600000001 467.76861299999996 927.195233 C 459.98227599999996 926.5699930000001 436.82894999999996 919.867337 423.91277899999994 917.888263 C 418.4769759999999 917.055292 412.17033999999995 916.395259 406.66085999999996 916.213111 C 400.15877199999994 915.987984 392.30899099999993 916.8260710000001 387.40223699999996 921.633564 C 385.17449899999997 923.8244629999999 384.12868 926.4686859999999 384.12868 926.4686859999999 C 391.158794 926.7060929999999 388.50024399999995 923.8715349999999 393.699663 925.3297459999999 C 398.748656 929.0719769999998 401.919882 928.6012559999999 404.901796 929.6511679999999 C 421.332 929.2889179999999 438.732299 931.9546299999998 438.732299 931.9546299999998 C 438.732299 931.9546299999998 407.97990100000004 936.1614419999999 400.936485 932.7814609999998 C 398.230863 931.4818619999999 392.300804 930.1147249999998 385.922536 929.2408219999998 C 377.112893 928.0404839999998 359.860974 928.6299079999998 351.578333 933.1559919999997 C 344.041683 937.2758229999997 340.90524899999997 946.7731279999997 343.696829 954.5113689999997 C 348.43985299999997 944.8789879999997 360.029819 945.2207719999997 360.029819 945.2207719999997 C 360.029819 945.2207719999997 373.04320399999995 950.0804529999997 384.751873 951.2961409999997 C 396.453379 952.5138749999996 416.668793 949.5739169999997 429.488773 952.9764099999996 C 440.39210099999997 952.3399139999997 453.87006599999995 954.4059689999997 453.87006599999995 954.4059689999997 C 453.87006599999995 954.4059689999997 437.70285099999995 956.8158549999997 434.39552599999996 970.9773899999997 C 433.993367 980.1288169999997 439.958218 989.6691009999997 439.958218 989.6691009999997 C 439.958218 989.6691009999997 443.61551399999996 982.1723599999997 449.549667 977.3259819999997 C 460.124513 968.6984869999998 491.738535 974.6438959999997 495.69566 967.1256659999997 C 502.11179 963.8009439999997 502.905875 941.1961099999996 502.905875 941.1961099999996 C 502.905875 941.1961099999996 526.45829 956.8793009999996 525.8023509999999 964.2665479999996 C 531.464304 961.3859409999995 530.7756189999999 958.4081199999996 530.3847159999999 955.4732779999996 C 529.9856269999999 952.5374129999996 526.261815 945.3507329999997 518.6525099999999 937.8632019999995 C 511.0472979999999 930.3562279999995 503.2118429999999 917.0798529999995 503.6211649999999 907.9427519999996 C 504.0130909999999 898.8025809999996 510.3013079999999 896.3087839999996 510.2900509999999 888.2512709999996 C 510.3033539999999 880.1998979999996 508.7499749999999 877.6661919999997 509.7200689999999 868.5966289999997 C 510.0577599999999 865.5318269999997 512.3284759999999 845.4177199999997 514.1694039999999 831.0852939999996 C 525.2763689999998 828.5219119999996 529.7175179999999 821.9635429999996 532.2072219999999 813.8067689999997 C 536.5132939999999 799.7178889999997 541.9583069999999 787.0196829999996 548.6844979999998 776.0518869999997 C 562.9718989999999 773.6072079999998 583.5096549999998 773.3779879999997 604.1896499999998 771.2976059999997 C 609.3532529999998 785.8367399999997 621.7219549999998 814.3603769999997 627.1956199999998 828.8094609999997 C 637.1278299999999 855.0214489999997 644.6041049999999 880.1804549999997 642.1195179999999 880.7923929999997 C 635.1671759999998 882.5258739999997 611.9268689999999 882.8768679999997 599.8938109999999 884.8139859999998 C 594.823329 885.6305839999998 589.10714 886.8779949999998 584.319091 888.3566719999998 C 578.666348 890.0983389999998 572.417017 893.2900309999998 570.758237 899.5209429999998 C 570.00713 902.3534549999997 570.507527 905.2893199999997 570.507527 905.2893199999997 C 576.618712 903.4002969999998 572.8662479999999 901.4079199999998 578.056457 901.2748899999998 C 584.3190910000001 903.4555559999998 586.7760490000001 902.0331599999998 589.862341 902.1713059999998 C 603.666742 896.8654629999999 619.885122 894.2519389999999 619.885122 894.2519389999999 C 619.885122 894.2519389999999 595.8978010000001 907.6828329999998 588.123744 906.4681679999999 C 585.14797 905.9994939999999 579.372429 906.4303059999999 573.487395 907.4924979999998 C 565.352111 908.9558259999999 550.970565 914.7456919999998 546.28587 921.7092909999999 C 542.0238 928.0568589999999 544.327262 938.3850889999999 550.7618110000001 945.1982609999999 C 549.7548780000001 934.2447909999999 559.7965810000001 931.0919849999999 559.7965810000001 931.0919849999999 C 559.7965810000001 931.0919849999999 573.436229 931.9740749999999 584.041775 929.6511699999999 C 594.651414 927.3282649999999 610.326418 918.3252169999998 623.028718 917.8237969999999 C 631.9795770000001 913.9076039999999 644.537591 911.8845279999999 644.537591 911.8845279999999 C 644.537591 911.8845279999999 632.033813 919.142839 636.64176 934.1465539999999 C 641.085979 943.3071909999999 651.166568 950.9420789999999 651.166568 950.9420789999999 C 651.166568 950.9420789999999 650.35304 942.433288 652.873443 935.851382 C 657.360641 924.132479 687.397748 920.4823459999999 686.829813 911.8579219999999 C 690.5536239999999 906.6318969999999 679.3862839999999 884.0465059999999 679.3862839999999 884.0465059999999 C 679.3862839999999 884.0465059999999 707.6633039999999 892.45706 710.9736999999999 899.948684 C 714.2892119999999 895.395995 712.1423159999999 892.662744 710.270689 889.881398 C 708.3898519999999 887.093912 701.4579759999999 881.115757 691.047882 876.0002489999999 C 680.6357409999999 870.873485 667.010419 860.1134199999999 662.570294 850.952783 C 658.117889 841.791123 662.1548319999999 837.4369549999999 657.93267 829.477679 C 653.720742 821.510217 651.070379 819.472814 647.147023 810.2200799999999 C 645.772723 806.9721059999999 637.761259 782.2920069999999 632.081909 766.8871559999999 C 634.057913 766.4215519999999 636.003218 765.9201319999999 637.916801 765.3706159999999 C 656.2544479999999 760.116962 816.154228 689.9877419999999 797.086964 549.9298689999999 C 836.406481 535.8808979999999 872.217082 475.7493789999999 859.261002 452.66768499999995 C 855.025538 457.15181299999995 839.110056 459.86869099999996 822.758647 459.01218299999994 C 875.918381 447.62790199999995 921.493369 348.33650099999994 907.498633 322.855153 C 908.552638 323.68812399999996 901.9318470000001 329.48822399999995 891.154386 336.99724499999996 C 905.037581 319.01775499999997 913.636423 280.70210099999997 905.928881 263.77866299999994 C 896.772337 258.86576999999994 885.7001640000001 260.9195449999999 875.816049 264.9042999999999 C 881.8361590000001 252.0965999999999 886.350986 225.36272499999993 873.339648 210.47361999999993 C 859.710233 207.67590099999993 845.445344 216.33000099999992 835.55202 224.88279499999993 C 846.283432 202.17665399999993 836.495508 147.23943699999992 805.409513 164.34399999999994 C 795.214313 169.95069499999994 785.8050129999999 180.99319199999994 780.7365769999999 190.52631199999993 C 771.628129 207.65134099999995 731.1481819999999 318.39865499999996 683.5501169999999 345.20927699999993 C 625.7814119999999 334.8984439999999 502.9662489999999 375.82148199999995 453.06881499999986 345.7741419999999 C 433.9452689999999 329.40635899999995 422.58554699999985 299.80108799999994 413.69710899999984 254.37754899999993 C 408.6808619999998 203.27977699999994 362.87972299999984 142.9272239999999 332.23784199999983 133.58341499999995 C 321.8983559999998 130.43163199999995 316.06551099999984 125.11453299999994 307.1801429999998 121.00902799999994 C 304.6362039999998 119.83529599999994 301.9612809999998 118.73421799999994 299.2126809999998 117.80607999999994 C 302.42790899999983 108.86136099999993 303.9106799999998 90.43059299999993 302.2140379999998 79.23152999999994 C 299.0110899999998 58.103326999999936 279.2326269999998 71.65804099999994 276.0440049999998 67.55765299999993 C 267.6743839999998 56.777121999999935 255.9687839999998 66.83417599999993 252.6502019999998 76.03779099999993 C 250.92490799999982 80.82686399999993 250.01518899999982 84.78910599999993 247.6053019999998 77.55126099999993 C 242.8622779999998 63.292511999999924 226.64492099999978 78.21231699999993 227.52598799999978 87.09154499999993 C 228.75190899999978 99.35689299999993 228.46333599999977 100.91334199999993 224.18079999999978 94.17077699999993 C 219.8992869999998 87.42718899999993 219.31804899999977 88.53747599999993 215.64335599999978 89.15248299999993 C 211.9696869999998 89.76544299999993 197.1829119999998 91.76805399999994 200.2436209999998 103.41430099999994 C 205.5023919999998 123.42709999999994 194.6788819999998 108.21258399999994 186.9600829999998 115.65304299999994 C 176.5786419999998 125.66302399999994 167.3299999999998 163.22552499999995 186.8761719999998 168.12920799999995 C 164.1731009999998 171.83562299999994 157.2575969999998 198.66159499999995 159.15685399999978 201.65067199999996 C 172.4976969999998 197.38041499999997 182.06765599999977 199.41986399999996 197.85010799999978 202.51741199999995 C 197.85010799999978 202.51741199999995 195.8515909999998 215.16956999999996 203.19892899999977 222.52509499999996 C 210.54524399999977 229.88164299999997 212.83335699999975 254.94548199999997 231.81056999999976 250.65578199999996 C 243.89479299999977 247.92662399999995 250.74889799999977 245.67023399999997 254.13399499999974 239.64296099999996 C 255.73853899999975 280.62739799999997 235.85979299999974 362.53282599999994 223.30996599999975 436.508654 C 206.87976199999974 533.354353 209.85144299999973 593.065293 287.4426119999997 661.014871 C 313.3015599999997 683.660637 344.9288839999997 703.4053299999999 381.0454529999997 716.278522 C 410.14725799999974 738.694044 435.70228399999974 756.7042329999999 443.54285599999974 802.491046 C 450.52181 843.253426 464.426495 836.812737 484.907968 833.438896 L 484.907968 833.438896 z" stroke-linecap="round" />
</g>
		<g transform="matrix(1 0 0 1 96.52 317.56)"  >
<path style="stroke: none; stroke-width: 1; stroke-dasharray: none; stroke-linecap: butt; stroke-dashoffset: 0; stroke-linejoin: miter; stroke-miterlimit: 4; fill: rgb(25,157,131); fill-rule: nonzero; opacity: 1;" vector-effect="non-scaling-stroke"  transform=" translate(-630.98, -843.84)" d="M 630.770034 767.188007 C 634.432447 792.344967 643.142829 815.452244 649.053446 830.215482 C 653.500735 841.3224469999999 674.772201 902.302287 671.561066 903.8290599999999 C 664.312988 909.114437 655.859456 915.2051549999999 648.590912 920.491555 C 650.498355 915.860071 651.802047 909.47771 655.506415 905.791761 C 645.517923 903.117862 629.519554 903.461693 590.0710999999999 914.924769 C 599.2992749999999 907.60199 623.8371349999999 905.860323 638.0078789999999 893.795543 C 634.6381319999999 890.220111 630.5346739999999 890.313232 618.2560229999999 889.2592269999999 C 626.1324109999999 888.3945329999999 636.8423329999999 887.1184699999999 645.3306579999999 887.340528 C 657.9173239999999 887.676172 644.8128649999999 858.829171 630.8263159999999 824.809356 C 626.4486119999999 814.155715 616.9083279999999 788.896425 605.6887989999999 771.144109 C 614.19145 770.249739 622.692055 769.023818 630.770034 767.188007 L 630.770034 767.188007 z" stroke-linecap="round" />
</g>
		<g transform="matrix(1 0 0 1 -79.24 370.95)"  >
<path style="stroke: none; stroke-width: 1; stroke-dasharray: none; stroke-linecap: butt; stroke-dashoffset: 0; stroke-linejoin: miter; stroke-miterlimit: 4; fill: rgb(25,157,131); fill-rule: nonzero; opacity: 1;" vector-effect="non-scaling-stroke"  transform=" translate(-455.22, -897.24)" d="M 512.011256 831.513034 C 503.626285 852.9246929999999 502.961136 872.2856459999999 501.124301 886.206704 C 499.705999 897.013841 488.781182 955.3566199999999 484.802567 955.6891949999999 C 474.864217 957.998797 463.315183 960.6491599999999 453.362507 962.957739 C 457.675743 959.583898 462.30210999999997 954.542069 467.903688 952.5200159999999 C 459.429689 947.2274759999999 443.43439 942.705486 398.421197 940.575986 C 411.382393 937.1223279999999 436.556749 943.0319209999999 456.892913 937.0322769999999 C 455.428562 932.9707749999999 451.323057 931.813415 439.733091 927.2157009999999 C 447.981962 928.8468509999999 459.236284 930.9917009999998 467.510738 933.7403009999998 C 479.784273 937.8181759999998 481.944472 909.3078419999998 485.943553 876.1087189999998 C 487.125472 866.2686069999999 488.876349 849.6040649999999 487.28306100000003 833.0664139999999 C 491.315911 832.4780129999999 495.580028 832.079947 500.09792500000003 832.2160469999999 C 504.69257 832.355215 508.631276 832.091202 512.011256 831.513034 L 512.011256 831.513034 z" stroke-linecap="round" />
</g>
		<g transform="matrix(1 0 0 1 17.22 -56.87)"  >
<path style="stroke: none; stroke-width: 1; stroke-dasharray: none; stroke-linecap: butt; stroke-dashoffset: 0; stroke-linejoin: miter; stroke-miterlimit: 4; fill: rgb(25,157,131); fill-rule: nonzero; opacity: 1;" vector-effect="non-scaling-stroke"  transform=" translate(-551.68, -469.42)" d="M 646.753053 361.324302 C 677.233251 365.28245 709.992353 369.33065 728.481449 359.139543 C 765.692956 338.629417 798.218743 267.1085 826.275752 234.159064 C 828.080864 232.03775 830.51224 229.469252 833.412289 226.799446 C 835.558162 211.610512 829.794902 186.985672 820.913627 179.38557699999998 C 811.63838 180.49586399999998 802.295594 190.27969499999998 794.933929 200.57006199999998 C 773.680883 241.322208 730.802306 333.82908799999996 686.6548300000001 345.828377 C 696.609553 348.027462 704.3866800000001 351.93956199999997 709.1634730000001 358.313736 C 689.0043410000001 337.883428 540.173664 367.764992 524.076034 371.764073 C 501.48041000000006 377.370768 449.82596000000007 383.454323 428.06330700000007 351.274413 C 422.45251900000005 341.883532 419.8267150000001 331.87150399999996 416.65344300000004 322.10916299999997 C 401.813457 276.46356699999995 388.73151 164.48828599999996 326.86651100000006 144.80396799999997 C 315.7472660000001 141.26844499999996 319.68085500000007 140.80591099999998 310.07098600000006 134.23628499999998 C 301.08738100000005 128.098494 286.5768990000001 122.76502299999999 268.6158290000001 124.75535299999999 C 256.08237500000007 129.03891299999998 244.98973500000008 129.66722299999998 232.95667800000007 135.959533 C 225.99103300000007 140.17760099999998 224.52975100000006 146.114824 220.55113700000007 150.682863 C 217.77388400000007 155.83316299999998 209.31216500000008 161.024395 206.13377600000007 163.242923 C 220.37103500000006 169.92306599999998 225.84060700000006 189.91335199999997 215.17059300000005 196.714245 C 214.93011600000006 196.86569400000002 214.65484700000005 197.015097 214.33864500000004 197.147104 C 206.56254100000004 202.44476 204.78301200000004 210.80107900000002 208.61324700000003 218.22107200000002 C 215.22994500000004 231.03900500000003 215.45200200000002 228.37840900000003 219.08576300000004 233.58089800000002 C 227.65799900000005 245.84215300000002 243.39849500000005 242.966662 249.73276000000004 232.24139000000002 C 256.06907200000006 216.23892800000002 242.93186700000004 217.59378500000003 242.32095300000003 208.39323900000002 C 240.91800000000003 187.41750900000002 278.26049 210.49818000000002 279.05048200000004 226.304167 C 271.49336600000004 213.942628 256.48965000000004 205.82781 256.09874700000006 211.118303 C 257.38811300000003 217.565132 257.28475900000007 224.44174999999998 256.56128100000006 231.066634 C 256.27782500000006 233.66173899999998 255.78663800000007 235.857754 255.04167100000006 237.732451 C 265.7014520000001 265.893838 245.89433700000006 352.927053 235.90993800000007 434.66261199999997 C 225.09359100000006 523.2819519999999 228.73246800000007 574.6345269999999 291.6238440000001 640.932489 C 316.01844000000006 666.646127 344.49193500000007 690.7234990000001 369.43502400000006 707.159843 C 349.24723900000004 690.808433 328.28378900000007 670.488642 310.97354100000007 636.173092 C 350.5038590000001 683.853021 400.7655900000001 703.291746 434.26658800000007 744.3130209999999 C 447.37411700000007 760.3656249999999 453.2049160000001 782.3881979999999 464.4756100000001 807.3558459999999 C 470.62977300000006 820.994471 493.27656300000007 810.6253089999999 503.33873300000005 812.164362 C 513.401926 813.704438 528.2490760000001 814.175159 528.0740900000001 793.5135829999999 C 527.8499860000001 767.5144419999999 563.9522290000001 745.275952 596.0431110000001 736.3291859999999 C 577.2449760000001 742.781132 562.529833 755.16109 551.20388 772.1152269999999 C 570.168814 757.3888269999999 593.133851 753.1247109999999 624.304782 750.5869109999999 C 654.4544530000001 748.1299529999999 798.904355 674.8939749999998 796.734946 550.0567579999998 C 785.2278680000001 554.0865379999998 773.4414270000001 554.1704489999998 762.486934 548.1841079999998 C 826.148859 549.3885389999998 851.299679 468.6251209999998 851.299679 468.6251209999998 C 843.1950939999999 470.1181249999998 823.395142 466.7514469999998 815.0480339999999 460.0498149999998 C 806.9301459999999 460.4407179999998 798.693554 458.6437919999998 790.516315 454.1044059999998 C 858.102619 468.3856669999998 887.832734 370.2035309999998 896.0243009999999 351.9999369999998 C 839.9460979999999 383.5187909999998 817.555135 381.7351689999998 803.549143 376.8437649999998 C 827.602978 374.6712859999998 861.1797009999999 356.7050989999998 883.6177359999999 342.0687499999998 C 898.1875699999999 323.6963109999998 899.4728419999999 286.9156159999998 894.8352189999999 277.2996069999998 C 875.6451579999999 270.3390779999998 830.044587 299.11342499999984 788.6835739999999 339.0561359999998 C 812.0804469999999 307.2231269999998 831.5519169999999 291.4232789999998 854.886369 276.3059769999998 C 859.014386 273.63105499999983 865.287253 269.6258339999998 872.421744 266.3696739999998 C 871.885532 250.2300889999998 874.023218 234.3565629999998 866.835515 226.4791519999998 C 822.90805 230.1262149999998 794.036489 357.2986159999998 725.861783 371.1398559999998 C 715.63998 373.21512 671.139463 376.37816 646.753053 361.324302 L 646.753053 361.324302 z" stroke-linecap="round" />
</g>
		<g transform="matrix(1 0 0 1 -234.14 0.88)"  >
<path style="stroke: none; stroke-width: 1; stroke-dasharray: none; stroke-linecap: butt; stroke-dashoffset: 0; stroke-linejoin: miter; stroke-miterlimit: 4; fill: rgb(25,157,131); fill-rule: nonzero; opacity: 1;" vector-effect="non-scaling-stroke"  transform=" translate(-300.32, -527.16)" d="M 235.913011 434.661587 C 225.096664 523.280927 228.735541 574.633502 291.626917 640.931464 C 316.02151299999997 666.645102 344.495008 690.722474 369.43809699999997 707.158818 C 349.25031199999995 690.807408 328.286862 670.487617 310.976614 636.172067 C 290.53709599999996 615.083773 253.215072 586.065879 244.61929999999998 542.2888399999999 C 230.51404699999998 470.46809399999995 249.80132299999997 417.09858299999996 259.791861 347.15969799999993 C 247.482511 383.63954 244.355287 400.966161 235.913011 434.661587 L 235.913011 434.661587 z" stroke-linecap="round" />
</g>
		<g transform="matrix(1 0 0 1 -82.49 -269.76)"  >
<path style="stroke: none; stroke-width: 1; stroke-dasharray: none; stroke-linecap: butt; stroke-dashoffset: 0; stroke-linejoin: miter; stroke-miterlimit: 4; fill: rgb(25,157,131); fill-rule: nonzero; opacity: 1;" vector-effect="non-scaling-stroke"  transform=" translate(-451.97, -256.52)" d="M 589.311807 359.588775 C 557.589315 364.553857 530.445095 370.179994 524.0770600000001 371.763049 C 501.4814360000001 377.369744 449.8269860000001 383.453299 428.0643330000001 351.273389 C 422.4535450000001 341.88250800000003 419.8277410000001 331.87048 416.65446900000006 322.108139 C 406.87473200000005 292.02702999999997 397.85940400000004 233.151108 375.14405300000004 190.855816 C 406.968876 263.390829 392.29364200000003 369.642758 458.50871600000005 384.501164 C 528.590864 400.22938 555.428093 365.77466100000004 624.78881 369.793184 C 619.560738 365.247658 608.888677 361.873818 589.311807 359.588775 L 589.311807 359.588775 z M 326.180897 144.582933 C 315.918159 141.247978 319.477218 140.66367 310.073034 134.235261 C 302.92217 129.348974 292.268529 124.97945600000001 279.153837 124.404358 C 289.02362500000004 127.316687 299.490001 131.697461 305.623698 138.097218 C 319.683925 152.768359 330.22704899999997 160.399153 330.22704899999997 160.399153 L 326.180897 144.582933 L 326.180897 144.582933 z" stroke-linecap="round" />
</g>
		<g transform="matrix(1 0 0 1 93.62 -27.94)"  >
<path style="stroke: none; stroke-width: 1; stroke-dasharray: none; stroke-linecap: butt; stroke-dashoffset: 0; stroke-linejoin: miter; stroke-miterlimit: 4; fill: rgb(25,157,131); fill-rule: nonzero; opacity: 1;" vector-effect="non-scaling-stroke"  transform=" translate(-628.08, -498.34)" d="M 721.292724 362.193089 C 723.871456 361.360118 726.281342 360.35216099999997 728.482473 359.140567 C 765.69398 338.63044099999996 798.219767 267.10952399999996 826.276776 234.16008799999997 C 828.081888 232.03877399999996 830.513264 229.47027599999998 833.413313 226.80046999999996 C 835.238891 213.88429899999997 831.336001 194.16314199999997 824.669162 183.86868199999998 C 806.331515 253.649977 756.176209 333.234547 721.292724 362.193089 L 721.292724 362.193089 z M 499.256768 812.05589 C 500.765121 811.963792 502.14146800000003 811.981189 503.341806 812.163337 C 513.404999 813.703413 528.252149 814.174134 528.077163 793.5125579999999 C 527.853059 767.5134169999999 563.9553020000001 745.2749269999999 596.046184 736.3281609999999 C 577.248049 742.7801069999999 562.532906 755.1600649999999 551.206953 772.1142019999999 C 570.171887 757.3878019999999 593.136924 753.1236859999999 624.307855 750.5858859999998 C 654.457526 748.1289279999999 798.907428 674.8929499999998 796.738019 550.0557329999998 C 785.230941 554.0855129999998 773.4445000000001 554.1694239999998 762.490007 548.1830829999998 C 806.3939359999999 549.0129839999997 831.973521 510.8590129999998 843.6279549999999 487.0947729999998 C 785.851064 547.8679049999998 728.346372 542.9140799999998 663.170977 508.0582239999998 C 627.905799 489.1997139999998 609.130177 468.7775919999998 568.053643 429.44477199999983 C 574.464656 442.58606999999984 578.369593 449.4023129999998 593.675184 465.9921529999998 C 603.480504 476.6181649999998 612.5101579999999 485.2108669999998 624.6813619999999 495.9013469999998 C 668.7367399999999 541.1243179999998 718.90842 565.5854289999999 753.151315 573.8199739999998 C 745.530754 591.9887759999998 699.599655 643.1172459999998 605.2344509999999 649.2591299999998 C 585.3546809999999 647.5287189999998 533.963221 624.3221809999998 509.94520099999994 571.5103719999998 C 514.62785 603.7874959999998 542.137391 634.1182919999999 564.368718 647.5686289999999 C 467.99373999999995 677.7049969999998 381.48241099999996 586.2367719999999 358.929766 538.2948769999998 C 377.2756 661.7230009999998 517.521761 701.0036319999998 624.872721 692.0312839999998 C 613.5426749999999 686.9495449999998 605.149517 680.1036269999998 599.097684 671.4996679999998 C 622.5262789999999 675.0198409999998 678.1777639999999 679.7127239999999 719.7679979999999 655.0663939999998 C 703.7338129999999 697.8651519999999 641.9343049999999 735.4235599999998 600.8557249999999 750.1264229999998 C 604.3707819999998 744.5504279999998 620.7672169999998 729.8803099999998 624.283297 714.0364599999998 C 613.1589349999999 725.7737819999998 581.527517 724.3104539999998 554.580795 738.9785249999998 C 527.6330499999999 753.6465959999998 511.249917 767.8347359999998 509.47345799999994 791.2019339999997 C 508.787842 800.215214 504.205477 807.045783 499.256768 812.05589 L 499.256768 812.05589 z M 815.052131 460.046744 C 806.934243 460.43764699999997 798.6976510000001 458.640721 790.5204120000001 454.101335 C 846.2599010000001 465.880613 876.238679 401.169799 889.6337570000001 367.905184 C 857.887729 414.12690200000003 811.8276940000001 459.098139 743.7839710000001 442.057021 C 754.297418 460.386482 787.858792 465.004663 815.052131 460.046744 L 815.052131 460.046744 z M 819.773665 373.550765 C 841.215 367.261525 865.897145 353.62597 883.6228550000001 342.06568 C 894.4340850000001 328.433195 897.926629 304.673048 897.117194 289.385877 C 882.659924 329.63865 811.166636 327.347467 786.5489590000001 362.253465 C 793.2843600000001 359.320669 827.548745 339.368245 854.7901790000001 340.834643 C 853.065909 345.29728 824.446082 370.533035 819.773665 373.550765 L 819.773665 373.550765 z M 811.363112 311.680649 C 825.682236 296.625768 839.446727 286.31084200000004 854.891488 276.302907 C 859.019505 273.627985 865.292372 269.622764 872.426863 266.366604 C 871.937723 251.621785 873.671203 237.10721 868.4942970000001 228.700749 C 847.910493 253.129114 827.275523 284.309254 811.363112 311.680649 L 811.363112 311.680649 z" stroke-linecap="round" />
</g>
		<g transform="matrix(1 0 0 1 -286.64 -332.06)"  >
<path style="stroke: none; stroke-width: 1; stroke-dasharray: none; stroke-linecap: butt; stroke-dashoffset: 0; stroke-linejoin: miter; stroke-miterlimit: 4; fill: rgb(25,157,131); fill-rule: nonzero; opacity: 1;" vector-effect="non-scaling-stroke"  transform=" translate(-247.82, -194.22)" d="M 214.359113 197.120496 C 206.56152 202.415082 204.779944 210.78982 208.615295 218.220047 C 215.23199300000002 231.03798 215.45405 228.377384 219.08781100000002 233.579873 C 227.66004700000002 245.841128 243.40054300000003 242.965637 249.73480800000002 232.240365 C 256.07112 216.237903 242.933915 217.59276 242.323001 208.392214 C 241.113453 190.32779 268.651646 204.946742 276.81763 219.448014 C 276.117689 217.109759 275.04424 213.751268 273.554307 209.726605 C 270.597975 201.728444 261.13751 196.845227 262.615164 191.811583 C 264.096911 186.77589300000002 272.376482 168.71146900000002 278.287098 167.824262 C 284.195668 166.936032 289.51583700000003 167.826309 288.925389 164.57117200000002 C 288.335965 161.31194200000002 289.51686 163.088401 280.06048699999997 158.64418200000003 C 270.59797499999996 154.20405600000004 268.23209099999997 150.34414500000003 257.89055799999994 147.68661900000004 C 244.20895399999995 144.17156200000002 219.07553099999996 151.40736000000004 216.59401299999993 172.46700200000004 C 222.20377799999994 181.02286500000002 222.54453899999993 192.01317400000005 215.17161699999994 196.71219600000003 C 214.94035 196.860577 214.663034 196.990536 214.359113 197.120496 L 214.359113 197.120496 z" stroke-linecap="round" />
</g>
		<g transform="matrix(1 0 0 1 -343.15 -343.91)"  >
<path style="stroke: none; stroke-width: 1; stroke-dasharray: none; stroke-linecap: butt; stroke-dashoffset: 0; stroke-linejoin: miter; stroke-miterlimit: 4; fill: rgb(25,157,131); fill-rule: nonzero; opacity: 1;" vector-effect="non-scaling-stroke"  transform=" translate(-191.31, -182.37)" d="M 172.402535 186.968276 C 180.971701 185.940877 192.616926 182.338839 202.922642 187.544397 C 189.559286 187.954743 183.160553 186.767708 170.787757 192.45115 C 181.486423 191.298907 195.547674 192.823633 206.356857 194.75870500000002 C 215.32306599999998 186.656167 211.95843499999998 175.840843 205.653846 170.10418900000002 C 196.049095 168.796404 172.769902 178.788989 172.402535 186.968276 L 172.402535 186.968276 z" stroke-linecap="round" />
</g>
		<g transform="matrix(1 0 0 1 20.29 14.28)"  >
<path style="stroke: none; stroke-width: 1; stroke-dasharray: none; stroke-linecap: butt; stroke-dashoffset: 0; stroke-linejoin: miter; stroke-miterlimit: 4; fill: rgb(25,157,131); fill-rule: nonzero; opacity: 1;" vector-effect="non-scaling-stroke"  transform=" translate(-554.75, -540.56)" d="M 340.030323 467.827965 C 339.121627 532.689205 381.79451900000004 594.352613 429.957448 628.565833 C 471.351207 657.96542 519.74745 672.376641 551.58046 663.755287 C 564.825112 660.1675749999999 566.322209 659.259903 580.078514 660.51243 C 623.916952 664.518674 707.0483 643.205252 727.084636 623.659081 C 769.66236 597.1810330000001 769.486352 566.249557 769.486352 566.249557 C 735.5576120000001 555.267435 671.054529 532.483522 637.226072 503.41958 C 633.7038520000001 500.38957 630.646213 496.850978 627.987664 493.275546 C 623.156635 486.770388 621.472273 483.704563 614.458533 479.457842 C 611.313913 477.557562 608.212272 475.593838 605.352131 473.03864200000004 C 587.17719 456.81412200000005 571.999512 436.393024 560.626487 414.89438400000006 C 562.235124 424.5329050000001 579.224054 461.42514000000006 602.102111 482.63520800000003 C 604.771917 485.108539 607.616708 486.813367 610.405217 488.21018000000004 C 617.080243 491.547182 618.489336 493.56207100000006 623.064538 499.67939600000005 C 624.4992129999999 501.58786200000003 626.00859 503.46051200000005 627.640763 505.08040600000004 C 661.799747 539.033706 714.788589 574.155621 740.804102 577.9091080000001 C 720.250997 619.6896770000001 638.1511409999999 649.822974 578.6530479999999 645.3900120000001 C 564.999073 644.374892 559.5642939999999 643.7834210000001 546.618447 645.600813 C 506.692111 651.184993 383.29571 633.540124 340.030323 467.827965 L 340.030323 467.827965 z" stroke-linecap="round" />
</g>
		<g transform="matrix(1 0 0 1 264.68 -150.69)"  >
<path style="stroke: none; stroke-width: 1; stroke-dasharray: none; stroke-linecap: butt; stroke-dashoffset: 0; stroke-linejoin: miter; stroke-miterlimit: 4; fill: rgb(25,157,131); fill-rule: nonzero; opacity: 1;" vector-effect="non-scaling-stroke"  transform=" translate(-799.14, -375.59)" d="M 728.927611 413.346119 C 751.042281 394.888745 797.628296 325.376578 869.3497809999999 339.7878 C 831.517127 343.042937 794.490839 359.289969 728.927611 413.346119 L 728.927611 413.346119 z" stroke-linecap="round" />
</g>
		<g transform="matrix(1 0 0 1 -281.69 -362.22)"  >
<path style="stroke: none; stroke-width: 1; stroke-dasharray: none; stroke-linecap: butt; stroke-dashoffset: 0; stroke-linejoin: miter; stroke-miterlimit: 4; fill: rgb(25,157,131); fill-rule: nonzero; opacity: 1;" vector-effect="non-scaling-stroke"  transform=" translate(-252.77, -164.06)" d="M 229.608421 163.878394 C 230.266407 163.51102699999998 234.774071 163.78015699999997 237.113349 161.04588199999998 C 248.296039 147.98747199999997 257.238712 147.98644799999997 268.423449 161.04588199999998 C 270.76375 163.78015599999998 275.4157 163.58265799999998 275.928377 163.878394 C 274.076193 164.592662 269.750677 165.546383 268.423449 167.10283199999998 C 262.694981 173.79320799999996 259.32728000000003 176.86312699999996 250.755044 176.86312699999996 C 242.569618 176.86312699999996 239.448534 169.83198999999996 237.114372 167.10283199999998 C 235.786121 165.546384 231.460606 164.593685 229.608421 163.878394 L 229.608421 163.878394 z" stroke-linecap="round" />
</g>
		<g transform="matrix(1 0 0 1 -292.86 -408.74)"  >
<path style="stroke: none; stroke-width: 1; stroke-dasharray: none; stroke-linecap: butt; stroke-dashoffset: 0; stroke-linejoin: miter; stroke-miterlimit: 4; fill: rgb(25,157,131); fill-rule: nonzero; opacity: 1;" vector-effect="non-scaling-stroke"  transform=" translate(-241.6, -117.54)" d="M 287.823288 115.267257 C 290.90650999999997 115.547643 294.01736 116.215862 297.05965 117.12455800000001 C 295.976992 106.61111000000001 299.342646 88.181365 294.305933 83.309405 C 292.710599 81.764213 284.666389 86.066192 282.18589399999996 87.027076 C 276.837073 87.855954 277.04684999999995 78.31259999999999 273.803993 75.79322099999999 C 256.78948099999997 62.56596499999999 267.541359 94.77657399999998 250.820536 92.17123699999999 C 238.432391 90.245375 237.064231 78.892816 236.01943500000002 96.44149399999999 C 235.57225000000003 103.99656399999999 226.596832 115.77686499999999 221.67882200000003 103.05716899999999 C 212.139562 91.73223899999999 207.13150100000001 108.08774199999999 208.38198100000002 114.826214 C 209.55264300000002 121.12261699999999 211.66167700000003 136.053678 202.09274100000002 131.54294399999998 C 188.907441 125.33045199999998 183.86458800000003 142.391013 186.853665 151.04920699999997 C 187.744965 153.63817199999997 192.260815 159.65316599999997 196.878996 161.93002199999998 C 198.606337 162.783459 200.773699 162.53479599999997 202.859197 161.92490499999997 C 219.485876 157.06420099999997 218.105436 142.29686899999996 229.516323 132.43424399999998 C 234.8017 127.91532399999998 239.629658 126.03448699999998 245.388825 124.59981199999999 C 259.957637 120.962979 271.805476 113.820302 287.823288 115.267257 L 287.823288 115.267257 z" stroke-linecap="round" />
</g>
		<g transform="matrix(1 0 0 1 -283.01 -363.22)"  >
<path style="stroke: none; stroke-width: 1; stroke-dasharray: none; stroke-linecap: butt; stroke-dashoffset: 0; stroke-linejoin: miter; stroke-miterlimit: 4; fill: rgb(25,157,131); fill-rule: nonzero; opacity: 1;" vector-effect="non-scaling-stroke"  transform=" translate(-251.44, -163.06)" d="M 251.443729 155.10866 C 255.845992 155.10866 259.396865 158.66055599999999 259.396865 163.061796 C 259.396865 167.463036 255.845992 171.013908 251.443729 171.013908 C 247.043512 171.013908 243.49264 167.462012 243.49264 163.061796 C 243.49264 158.66158 247.043512 155.10866 251.443729 155.10866 L 251.443729 155.10866 z" stroke-linecap="round" />
</g>
		<g transform="matrix(1 0 0 1 -283.93 -363.63)"  >
<path style="stroke: none; stroke-width: 1; stroke-dasharray: none; stroke-linecap: butt; stroke-dashoffset: 0; stroke-linejoin: miter; stroke-miterlimit: 4; fill: rgb(25,157,131); fill-rule: nonzero; opacity: 1;" vector-effect="non-scaling-stroke"  transform=" translate(-250.53, -162.65)" d="M 250.531963 158.679999 C 252.72797799999998 158.679999 254.49829799999998 160.450319 254.49829799999998 162.646334 C 254.49829799999998 164.84234899999998 252.72797799999998 166.61266899999998 250.531963 166.61266899999998 C 248.335948 166.61266899999998 246.565628 164.84234899999998 246.565628 162.646334 C 246.565629 160.450319 248.335948 158.679999 250.531963 158.679999 L 250.531963 158.679999 z" stroke-linecap="round" />
</g>
</g>
</g>
<g transform="matrix(NaN NaN NaN NaN 0 0)"  >
<g style=""   >
</g>
</g>
</svg>